<mxfile host="Electron" agent="Mozilla/5.0 (Windows NT 10.0; Win64; x64) AppleWebKit/537.36 (KHTML, like Gecko) draw.io/24.7.17 Chrome/128.0.6613.36 Electron/32.0.1 Safari/537.36" version="24.7.17">
  <diagram name="Page-1" id="25Wn4mRjlG_miRBtiKao">
    <mxGraphModel dx="797" dy="472" grid="1" gridSize="10" guides="1" tooltips="1" connect="1" arrows="1" fold="1" page="1" pageScale="1" pageWidth="827" pageHeight="1169" math="0" shadow="0">
      <root>
        <mxCell id="0" />
        <mxCell id="1" parent="0" />
        <mxCell id="zfSGKrKUcmw0JXGN4hIw-8" value="" style="ellipse;whiteSpace=wrap;html=1;fillColor=#dae8fc;strokeColor=#6c8ebf;" parent="1" vertex="1">
          <mxGeometry x="187.5" y="130" width="445" height="450" as="geometry" />
        </mxCell>
        <mxCell id="zfSGKrKUcmw0JXGN4hIw-2" value="" style="ellipse;whiteSpace=wrap;html=1;fillColor=#d5e8d4;strokeColor=#82b366;" parent="1" vertex="1">
          <mxGeometry x="235.01" y="175" width="350" height="360" as="geometry" />
        </mxCell>
        <mxCell id="zfSGKrKUcmw0JXGN4hIw-6" value="" style="ellipse;whiteSpace=wrap;html=1;fillColor=#fff2cc;strokeColor=#d6b656;" parent="1" vertex="1">
          <mxGeometry x="270.63" y="216.25" width="278.75" height="277.5" as="geometry" />
        </mxCell>
        <mxCell id="zfSGKrKUcmw0JXGN4hIw-7" value="" style="ellipse;whiteSpace=wrap;html=1;fillColor=#f8cecc;strokeColor=#b85450;" parent="1" vertex="1">
          <mxGeometry x="325" y="267.5" width="170" height="175" as="geometry" />
        </mxCell>
        <mxCell id="Smr-9ZV9C2pYUwTpKfjp-3" value="DOMAIN LAYER" style="text;html=1;align=center;verticalAlign=middle;whiteSpace=wrap;rounded=0;" vertex="1" parent="1">
          <mxGeometry x="360" y="280" width="100" height="20" as="geometry" />
        </mxCell>
        <mxCell id="Smr-9ZV9C2pYUwTpKfjp-4" value="REPOSITORY LAYER" style="text;html=1;align=center;verticalAlign=middle;whiteSpace=wrap;rounded=0;" vertex="1" parent="1">
          <mxGeometry x="347" y="230" width="126" height="30" as="geometry" />
        </mxCell>
        <mxCell id="Smr-9ZV9C2pYUwTpKfjp-5" value="SERVICES LAYER" style="text;html=1;align=center;verticalAlign=middle;whiteSpace=wrap;rounded=0;" vertex="1" parent="1">
          <mxGeometry x="355" y="175" width="110" height="30" as="geometry" />
        </mxCell>
        <mxCell id="Smr-9ZV9C2pYUwTpKfjp-8" value="UI LAYER" style="text;html=1;align=center;verticalAlign=middle;whiteSpace=wrap;rounded=0;" vertex="1" parent="1">
          <mxGeometry x="380" y="130" width="60" height="30" as="geometry" />
        </mxCell>
        <mxCell id="Smr-9ZV9C2pYUwTpKfjp-9" value="&lt;font style=&quot;font-size: 13px;&quot;&gt;Cheep&lt;/font&gt;" style="text;html=1;align=center;verticalAlign=middle;whiteSpace=wrap;rounded=0;" vertex="1" parent="1">
          <mxGeometry x="347" y="340" width="60" height="30" as="geometry" />
        </mxCell>
        <mxCell id="Smr-9ZV9C2pYUwTpKfjp-10" value="&lt;font style=&quot;font-size: 13px;&quot;&gt;Author&lt;/font&gt;" style="text;html=1;align=center;verticalAlign=middle;whiteSpace=wrap;rounded=0;" vertex="1" parent="1">
          <mxGeometry x="413" y="340" width="60" height="30" as="geometry" />
        </mxCell>
        <mxCell id="Smr-9ZV9C2pYUwTpKfjp-12" value="&lt;font style=&quot;font-size: 10px;&quot;&gt;CheepDTO&lt;/font&gt;" style="text;html=1;align=center;verticalAlign=middle;whiteSpace=wrap;rounded=0;" vertex="1" parent="1">
          <mxGeometry x="250.63" y="340" width="89.37" height="30" as="geometry" />
        </mxCell>
        <mxCell id="Smr-9ZV9C2pYUwTpKfjp-13" value="&lt;font style=&quot;font-size: 10px;&quot;&gt;AuthorDTO&lt;/font&gt;" style="text;html=1;align=center;verticalAlign=middle;whiteSpace=wrap;rounded=0;" vertex="1" parent="1">
          <mxGeometry x="493.75" y="340" width="56.25" height="30" as="geometry" />
        </mxCell>
        <mxCell id="Smr-9ZV9C2pYUwTpKfjp-16" value="&lt;font style=&quot;font-size: 10px;&quot;&gt;DBcontext&lt;/font&gt;" style="text;html=1;align=center;verticalAlign=middle;whiteSpace=wrap;rounded=0;" vertex="1" parent="1">
          <mxGeometry x="473" y="280" width="57" height="30" as="geometry" />
        </mxCell>
        <mxCell id="Smr-9ZV9C2pYUwTpKfjp-17" value="&lt;div style=&quot;&quot;&gt;&lt;font style=&quot;font-size: 10px;&quot;&gt;&lt;span style=&quot;font-size: 8px;&quot;&gt;ICheepRepository&lt;/span&gt;&lt;br&gt;&lt;/font&gt;&lt;/div&gt;&lt;div style=&quot;&quot;&gt;&lt;font style=&quot;font-size: 10px;&quot;&gt;CheepRepository&lt;/font&gt;&lt;/div&gt;" style="text;html=1;align=center;verticalAlign=middle;whiteSpace=wrap;rounded=0;rotation=30;" vertex="1" parent="1">
          <mxGeometry x="303" y="440" width="110" height="30" as="geometry" />
        </mxCell>
        <mxCell id="Smr-9ZV9C2pYUwTpKfjp-18" value="&lt;div style=&quot;&quot;&gt;&lt;span style=&quot;font-size: 8px;&quot;&gt;IAuthorRepository&lt;/span&gt;&lt;span style=&quot;background-color: initial;&quot;&gt;&lt;font style=&quot;font-size: 10px;&quot;&gt;&lt;br&gt;&lt;/font&gt;&lt;/span&gt;&lt;/div&gt;&lt;div style=&quot;&quot;&gt;&lt;span style=&quot;background-color: initial;&quot;&gt;&lt;font style=&quot;font-size: 10px;&quot;&gt;AuthorRepository&lt;/font&gt;&lt;/span&gt;&lt;br&gt;&lt;/div&gt;" style="text;html=1;align=center;verticalAlign=middle;whiteSpace=wrap;rounded=0;rotation=-30;" vertex="1" parent="1">
          <mxGeometry x="414" y="430" width="110" height="40" as="geometry" />
        </mxCell>
        <mxCell id="Smr-9ZV9C2pYUwTpKfjp-19" value="&lt;font style=&quot;font-size: 11px;&quot;&gt;CheepService&lt;/font&gt;" style="text;html=1;align=center;verticalAlign=middle;whiteSpace=wrap;rounded=0;rotation=30;" vertex="1" parent="1">
          <mxGeometry x="280" y="470" width="110" height="40" as="geometry" />
        </mxCell>
        <mxCell id="Smr-9ZV9C2pYUwTpKfjp-20" value="&lt;font style=&quot;font-size: 11px;&quot;&gt;AuthorService&lt;/font&gt;" style="text;html=1;align=center;verticalAlign=middle;whiteSpace=wrap;rounded=0;rotation=-30;" vertex="1" parent="1">
          <mxGeometry x="430" y="470" width="110" height="40" as="geometry" />
        </mxCell>
        <mxCell id="Smr-9ZV9C2pYUwTpKfjp-21" value="Razor Pages" style="text;html=1;align=center;verticalAlign=middle;whiteSpace=wrap;rounded=0;rotation=-30;" vertex="1" parent="1">
          <mxGeometry x="260" y="170" width="100" height="30" as="geometry" />
        </mxCell>
        <mxCell id="Smr-9ZV9C2pYUwTpKfjp-22" value="UnitTests" style="text;html=1;align=center;verticalAlign=middle;whiteSpace=wrap;rounded=0;rotation=45;" vertex="1" parent="1">
          <mxGeometry x="230" y="475" width="60" height="30" as="geometry" />
        </mxCell>
        <mxCell id="Smr-9ZV9C2pYUwTpKfjp-23" value="IntegrationTests" style="text;html=1;align=center;verticalAlign=middle;whiteSpace=wrap;rounded=0;" vertex="1" parent="1">
          <mxGeometry x="364" y="540" width="100" height="30" as="geometry" />
        </mxCell>
        <mxCell id="Smr-9ZV9C2pYUwTpKfjp-24" value="E2ETests" style="text;html=1;align=center;verticalAlign=middle;whiteSpace=wrap;rounded=0;rotation=-30;" vertex="1" parent="1">
          <mxGeometry x="517" y="487.5" width="60" height="30" as="geometry" />
        </mxCell>
      </root>
    </mxGraphModel>
  </diagram>
</mxfile>
